# xmcd
#
# Track frame offsets: 
#        150
#        16423
#        35864
#        47503
#        62153
#        80401
#        92209
#        106344
#        123145
#        133999
#
# Disc length: 1955 seconds
#
# Revision: 0
# Processed by: cddbd v1.5.2PL0 Copyright (c) Steve Scherf et al.
# Submitted via: ExactAudioCopy v0.95b4
#
DISCID=8507a10a
DTITLE=Amy Winehouse - Back to Black
DYEAR=1900
DGENRE=
TTITLE0=TTITLE0=Rehab
TTITLE1=TTITLE1=You know I'm no good
TTITLE2=TTITLE2=Me and Mr Jones
TTITLE3=TTITLE3=Just friends
TTITLE4=TTITLE4=Back to black
TTITLE5=TTITLE5=Love is a losing game
TTITLE6=TTITLE6=Tears dry on their own
TTITLE7=TTITLE7=Wake up alone
TTITLE8=TTITLE8=Some unholy war
TTITLE9=TTITLE9=He can only hold her
EXTD=
EXTT0=
EXTT1=
EXTT2=
EXTT3=
EXTT4=
EXTT5=
EXTT6=
EXTT7=
EXTT8=
EXTT9=
PLAYORDER=
